<svg width="337" height="337" viewBox="0 0 337 337" fill="none" xmlns="http://www.w3.org/2000/svg">
<rect width="337" height="337" rx="168.5" fill="#FF4444" fill-opacity="0.87"/>
<path d="M101.7 241.9C94.3667 241.9 86.9 240.967 79.3 239.1C71.8333 237.367 65.5667 235.033 60.5 232.1L61.7 204.3H67.5L73.7 218.1C75.5667 221.967 77.5 225.167 79.5 227.7C81.5 230.233 84.1667 232.167 87.5 233.5C89.7667 234.433 91.9 235.1 93.9 235.5C96.0333 235.767 98.3667 235.9 100.9 235.9C109.033 235.9 115.433 233.833 120.1 229.7C124.9 225.433 127.3 219.833 127.3 212.9C127.3 206.633 125.633 201.7 122.3 198.1C119.1 194.5 113.9 191.033 106.7 187.7L98.5 184.1C87.3 179.167 78.4333 173.433 71.9 166.9C65.5 160.367 62.3 151.7 62.3 140.9C62.3 132.9 64.3 126.1 68.3 120.5C72.4333 114.767 78.1 110.367 85.3 107.3C92.5 104.233 100.9 102.7 110.5 102.7C117.567 102.7 124.167 103.633 130.3 105.5C136.567 107.367 142.033 109.9 146.7 113.1L145.3 137.9H139.5L132.1 122.9C129.967 118.5 127.9 115.367 125.9 113.5C124.033 111.5 121.7 110.233 118.9 109.7C117.3 109.433 115.9 109.233 114.7 109.1C113.633 108.967 112.167 108.9 110.3 108.9C103.767 108.9 98.1 110.833 93.3 114.7C88.6333 118.433 86.3 123.633 86.3 130.3C86.3 136.7 88.1 141.9 91.7 145.9C95.3 149.9 100.5 153.433 107.3 156.5L116.3 160.3C129.233 165.9 138.5 171.9 144.1 178.3C149.7 184.567 152.5 192.633 152.5 202.5C152.5 214.233 148.033 223.767 139.1 231.1C130.3 238.3 117.833 241.9 101.7 241.9ZM161.834 238.5V234.3L166.034 233.1C168.701 232.3 170.368 231.167 171.034 229.7C171.834 228.1 172.234 225.9 172.234 223.1C172.368 215.367 172.434 207.633 172.434 199.9C172.434 192.167 172.434 184.367 172.434 176.5V168.3C172.434 160.567 172.434 152.833 172.434 145.1C172.434 137.367 172.368 129.633 172.234 121.9C172.234 119.1 171.901 116.967 171.234 115.5C170.568 113.9 168.901 112.7 166.234 111.9L161.834 110.5V106.3H217.834C233.434 106.3 245.434 109.3 253.834 115.3C262.368 121.167 266.634 129.433 266.634 140.1C266.634 145.967 264.301 151.9 259.634 157.9C255.101 163.9 248.101 168.5 238.634 171.7L265.834 224.7C268.101 229.1 271.634 232.1 276.434 233.7L280.234 234.5V238.5H244.834L215.034 176.1H200.634C200.634 185.567 200.634 194.1 200.634 201.7C200.634 209.3 200.701 216.433 200.834 223.1C200.834 225.767 201.234 227.9 202.034 229.5C202.968 231.1 204.701 232.233 207.234 232.9L212.034 234.3V238.5H161.834ZM200.634 170.3H211.434C220.901 170.3 227.834 167.9 232.234 163.1C236.634 158.3 238.834 150.967 238.834 141.1C238.834 131.233 236.701 123.967 232.434 119.3C228.301 114.5 221.568 112.1 212.234 112.1H200.834C200.834 117.3 200.768 122.633 200.634 128.1C200.634 133.433 200.634 139.5 200.634 146.3C200.634 152.967 200.634 160.967 200.634 170.3Z" fill="white"/>
</svg>
